<svg xmlns="http://www.w3.org/2000/svg" width="1200" height="630" viewBox="0 0 1200 630" role="img" aria-labelledby="title desc">
  <title id="title">CheesyGuide</title>
  <desc id="desc">A Team 254 CheesyGuide social preview image.</desc>
  <defs>
    <linearGradient id="bg" x1="0" x2="1" y1="0" y2="1">
      <stop offset="0" stop-color="#08060d"/>
      <stop offset="0.55" stop-color="#16121f"/>
      <stop offset="1" stop-color="#23172f"/>
    </linearGradient>
    <linearGradient id="bolt" x1="0" x2="1" y1="0" y2="1">
      <stop offset="0" stop-color="#f6d84c"/>
      <stop offset="1" stop-color="#ff9f1c"/>
    </linearGradient>
  </defs>
  <rect width="1200" height="630" fill="url(#bg)"/>
  <path fill="#2e213d" d="M0 470c155-62 269-75 402-45 102 23 189 70 302 83 157 18 292-38 496-119v241H0z"/>
  <g transform="translate(112 108)">
    <path fill="url(#bolt)" d="M176 386c-8 11-26 5-26-9V260H31c-12 0-19-13-12-23l84-118c12-17 0-40-21-40H18C6 79-1 65 6 55L42 5c3-4 8-5 13-5h286c12 0 19 14 12 24l-84 117c-12 17 0 41 21 41h118c13 0 20 15 12 25z"/>
    <circle cx="141" cy="117" r="18" fill="#08060d" opacity=".55"/>
    <circle cx="238" cy="78" r="14" fill="#08060d" opacity=".5"/>
    <circle cx="250" cy="271" r="21" fill="#08060d" opacity=".45"/>
  </g>
  <g fill="#fff" transform="translate(540 184)">
    <text font-family="Inter, Arial, sans-serif" font-size="82" font-weight="800">CheesyGuide</text>
    <text y="92" font-family="Inter, Arial, sans-serif" font-size="32" font-weight="600" fill="#f6d84c">Team 254 engineering knowledgebase</text>
    <text y="154" font-family="Inter, Arial, sans-serif" font-size="26" fill="#e4dff0">Search uploaded guides. Ask source-grounded robot design questions.</text>
  </g>
</svg>
